<svg width="20" height="20" viewBox="0 0 20 20" fill="none" xmlns="http://www.w3.org/2000/svg">
<path d="M9.99998 19.1667C4.93723 19.1667 0.833313 15.0628 0.833313 10C0.833313 4.93726 4.93723 0.833344 9.99998 0.833344C15.0627 0.833344 19.1666 4.93726 19.1666 10C19.1666 15.0628 15.0627 19.1667 9.99998 19.1667ZM6.33331 10.9167C6.33331 11.8891 6.71962 12.8218 7.40725 13.5094C8.09489 14.197 9.02752 14.5833 9.99998 14.5833C10.9724 14.5833 11.9051 14.197 12.5927 13.5094C13.2803 12.8218 13.6666 11.8891 13.6666 10.9167H6.33331ZM6.33331 9.08334C6.69799 9.08334 7.04772 8.93848 7.30558 8.68062C7.56345 8.42275 7.70831 8.07302 7.70831 7.70834C7.70831 7.34367 7.56345 6.99393 7.30558 6.73607C7.04772 6.47821 6.69799 6.33334 6.33331 6.33334C5.96864 6.33334 5.6189 6.47821 5.36104 6.73607C5.10318 6.99393 4.95831 7.34367 4.95831 7.70834C4.95831 8.07302 5.10318 8.42275 5.36104 8.68062C5.6189 8.93848 5.96864 9.08334 6.33331 9.08334ZM13.6666 9.08334C14.0313 9.08334 14.3811 8.93848 14.6389 8.68062C14.8968 8.42275 15.0416 8.07302 15.0416 7.70834C15.0416 7.34367 14.8968 6.99393 14.6389 6.73607C14.3811 6.47821 14.0313 6.33334 13.6666 6.33334C13.302 6.33334 12.9522 6.47821 12.6944 6.73607C12.4365 6.99393 12.2916 7.34367 12.2916 7.70834C12.2916 8.07302 12.4365 8.42275 12.6944 8.68062C12.9522 8.93848 13.302 9.08334 13.6666 9.08334Z" fill="#00B533"/>
</svg>
